<mxfile host="Electron" modified="2024-03-15T14:52:16.609Z" agent="Mozilla/5.0 (Windows NT 10.0; Win64; x64) AppleWebKit/537.36 (KHTML, like Gecko) draw.io/22.1.2 Chrome/114.0.5735.289 Electron/25.9.4 Safari/537.36" etag="znWBjo-GtlWtpas_q2N-" version="22.1.2" type="device">
  <diagram id="DtEAEzpeRhQfbzNKSvpw" name="EC2">
    <mxGraphModel dx="1098" dy="699" grid="1" gridSize="10" guides="1" tooltips="1" connect="1" arrows="1" fold="1" page="1" pageScale="1" pageWidth="1169" pageHeight="827" math="0" shadow="0">
      <root>
        <mxCell id="0" />
        <mxCell id="1" parent="0" />
        <UserObject label="&lt;font style=&quot;font-size: 11px;&quot;&gt;Availability zone&lt;/font&gt;" link="https://docs.aws.amazon.com/AWSEC2/latest/UserGuide/using-regions-availability-zones.html" linkTarget="_blank" tooltip="Availability Zone: A location within a region." id="G9NsWo8rrPsgKx8y6_3a-1">
          <mxCell style="sketch=1;outlineConnect=0;gradientColor=none;html=1;whiteSpace=wrap;fontSize=13;fontStyle=0;shape=mxgraph.aws4.group;grIcon=mxgraph.aws4.group_availability_zone;strokeColor=#545B64;fillColor=none;verticalAlign=top;align=left;spacingLeft=30;fontColor=#545B64;dashed=1;rotation=0;fontFamily=Roboto;fontSource=https%3A%2F%2Ffonts.googleapis.com%2Fcss%3Ffamily%3DRoboto;curveFitting=1;jiggle=2;" parent="1" vertex="1">
            <mxGeometry x="611" y="202" width="273.375" height="256.5" as="geometry" />
          </mxCell>
        </UserObject>
        <UserObject label="&lt;font color=&quot;#8c4fff&quot;&gt;VPC&lt;/font&gt;" link="https://docs.aws.amazon.com/vpc/latest/userguide/what-is-amazon-vpc.html" linkTarget="_blank" tooltip="VPC: Virtual Private Cloud" id="G9NsWo8rrPsgKx8y6_3a-2">
          <mxCell style="points=[[0,0],[0.25,0],[0.5,0],[0.75,0],[1,0],[1,0.25],[1,0.5],[1,0.75],[1,1],[0.75,1],[0.5,1],[0.25,1],[0,1],[0,0.75],[0,0.5],[0,0.25]];outlineConnect=0;gradientColor=none;html=1;whiteSpace=wrap;fontSize=12;fontStyle=0;container=1;pointerEvents=0;collapsible=0;recursiveResize=0;shape=mxgraph.aws4.group;grIcon=mxgraph.aws4.group_vpc2;strokeColor=#8C4FFF;fillColor=none;verticalAlign=top;align=left;spacingLeft=30;fontColor=#AAB7B8;dashed=0;rotation=0;sketch=1;curveFitting=1;jiggle=2;" parent="1" vertex="1">
            <mxGeometry x="651" y="233" width="200" height="200" as="geometry" />
          </mxCell>
        </UserObject>
        <UserObject label="&lt;font color=&quot;#7aa116&quot;&gt;Public subnet&lt;/font&gt;" link="https://docs.aws.amazon.com/vpc/latest/userguide/configure-subnets.html" tooltip="Subnet: &quot; ... a range of IP [internet protocol] addresses &quot; within a virtual private cloud." id="G9NsWo8rrPsgKx8y6_3a-3">
          <mxCell style="points=[[0,0],[0.25,0],[0.5,0],[0.75,0],[1,0],[1,0.25],[1,0.5],[1,0.75],[1,1],[0.75,1],[0.5,1],[0.25,1],[0,1],[0,0.75],[0,0.5],[0,0.25]];outlineConnect=0;gradientColor=none;html=1;whiteSpace=wrap;fontSize=12;fontStyle=1;container=1;pointerEvents=0;collapsible=0;recursiveResize=0;shape=mxgraph.aws4.group;grIcon=mxgraph.aws4.group_security_group;grStroke=0;strokeColor=#7AA116;fillColor=#FFFFFF;verticalAlign=top;align=left;spacingLeft=30;fontColor=#248814;dashed=0;rotation=0;shadow=1;textShadow=1;" parent="G9NsWo8rrPsgKx8y6_3a-2" vertex="1">
            <mxGeometry x="34" y="35" width="145" height="145" as="geometry" />
          </mxCell>
        </UserObject>
        <UserObject label="&lt;font style=&quot;font-size: 10px;&quot;&gt;&lt;b style=&quot;font-size: 10px;&quot;&gt;SECURITY GROUPS&lt;/b&gt;&lt;/font&gt;" link="https://docs.aws.amazon.com/vpc/latest/userguide/vpc-security-groups.html" linkTarget="_blank" tooltip="Security Groups: &quot;A security group controls the traffic that is allowed to reach and leave the resources that it is associated with.&quot;" id="G9NsWo8rrPsgKx8y6_3a-4">
          <mxCell style="rounded=1;whiteSpace=wrap;html=1;rotation=0;dashed=1;dashPattern=8 8;strokeWidth=0.5;fontFamily=Roboto;fontSource=https%3A%2F%2Ffonts.googleapis.com%2Fcss%3Ffamily%3DRoboto;labelPosition=center;verticalLabelPosition=bottom;align=center;verticalAlign=top;fontSize=10;" parent="G9NsWo8rrPsgKx8y6_3a-3" vertex="1">
            <mxGeometry x="36" y="33" width="71" height="71" as="geometry" />
          </mxCell>
        </UserObject>
        <UserObject label="&lt;font style=&quot;font-size: 10px;&quot; face=&quot;Roboto&quot;&gt;EC2&lt;/font&gt;" tooltip="Amazon Elastic Cloud Compute (EC2)" link="https://docs.aws.amazon.com/AWSEC2/latest/UserGuide/concepts.html" linkTarget="_blank" id="G9NsWo8rrPsgKx8y6_3a-14">
          <mxCell style="sketch=0;outlineConnect=0;fontColor=#ED7100;gradientColor=none;fillColor=#ED7100;strokeColor=none;dashed=0;verticalLabelPosition=middle;verticalAlign=middle;align=center;html=1;fontSize=12;fontStyle=0;aspect=fixed;pointerEvents=1;shape=mxgraph.aws4.instance2;rotation=0;labelPosition=center;" parent="G9NsWo8rrPsgKx8y6_3a-3" vertex="1">
            <mxGeometry x="53" y="53" width="35" height="35" as="geometry" />
          </mxCell>
        </UserObject>
        <UserObject label="" tooltip="Internet Gateway: &quot;... a horizontally scaled, redundant, and highly available VPC [Virtual Private Cloud] component that allows communication between ...&quot; a virtual private cloud and the internet." link="https://docs.aws.amazon.com/vpc/latest/userguide/VPC_Internet_Gateway.html" linkTarget="_blank" id="G9NsWo8rrPsgKx8y6_3a-6">
          <mxCell style="outlineConnect=0;fontColor=#232F3E;gradientColor=none;fillColor=#8C4FFF;strokeColor=none;dashed=0;verticalLabelPosition=bottom;verticalAlign=top;align=center;html=1;fontSize=12;fontStyle=0;aspect=fixed;pointerEvents=1;shape=mxgraph.aws4.internet_gateway;rotation=0;shadow=1;" parent="G9NsWo8rrPsgKx8y6_3a-2" vertex="1">
            <mxGeometry x="-20" y="82.5" width="39" height="39" as="geometry" />
          </mxCell>
        </UserObject>
        <UserObject label="Region" link="https://docs.aws.amazon.com/AWSEC2/latest/UserGuide/using-regions-availability-zones.html" linkTarget="_blank" tooltip="Region" id="G9NsWo8rrPsgKx8y6_3a-7">
          <mxCell style="html=1;verticalLabelPosition=middle;align=left;labelBackgroundColor=#ffffff;verticalAlign=middle;strokeWidth=2;strokeColor=#147EBA;shadow=0;dashed=0;shape=mxgraph.ios7.icons.flag;fontFamily=Roboto;fontSource=https%3A%2F%2Ffonts.googleapis.com%2Fcss%3Ffamily%3DRoboto;fontSize=13;labelPosition=right;spacingRight=0;spacingLeft=5;fontColor=#147EBA;" parent="1" vertex="1">
            <mxGeometry x="290" y="177" width="30" height="30" as="geometry" />
          </mxCell>
        </UserObject>
        <mxCell id="G9NsWo8rrPsgKx8y6_3a-8" value="" style="endArrow=none;dashed=1;html=1;rounded=0;strokeColor=#147EBA;" parent="1" edge="1">
          <mxGeometry width="50" height="50" relative="1" as="geometry">
            <mxPoint x="290" y="167" as="sourcePoint" />
            <mxPoint x="1010" y="167" as="targetPoint" />
          </mxGeometry>
        </mxCell>
        <UserObject label="" tooltip="An Amazon S3 (Simple Storage Service) bucket." link="https://docs.aws.amazon.com/AmazonS3/latest/userguide/Welcome.html" linkTarget="_blank" id="G9NsWo8rrPsgKx8y6_3a-10">
          <mxCell style="sketch=0;points=[[0,0,0],[0.25,0,0],[0.5,0,0],[0.75,0,0],[1,0,0],[0,1,0],[0.25,1,0],[0.5,1,0],[0.75,1,0],[1,1,0],[0,0.25,0],[0,0.5,0],[0,0.75,0],[1,0.25,0],[1,0.5,0],[1,0.75,0]];outlineConnect=0;fontColor=#232F3E;fillColor=#000000;strokeColor=#ffffff;dashed=0;verticalLabelPosition=bottom;verticalAlign=top;align=center;html=1;fontSize=12;fontStyle=0;aspect=fixed;shape=mxgraph.aws4.resourceIcon;resIcon=mxgraph.aws4.s3;opacity=80;rotation=0;" parent="1" vertex="1">
            <mxGeometry x="460.005" y="315.5" width="39" height="39" as="geometry" />
          </mxCell>
        </UserObject>
        <mxCell id="G9NsWo8rrPsgKx8y6_3a-12" style="edgeStyle=none;rounded=0;orthogonalLoop=1;jettySize=auto;html=1;entryX=1;entryY=0.5;entryDx=0;entryDy=0;entryPerimeter=0;endArrow=blockThin;endFill=1;startArrow=blockThin;startFill=1;" parent="1" source="G9NsWo8rrPsgKx8y6_3a-6" target="G9NsWo8rrPsgKx8y6_3a-10" edge="1">
          <mxGeometry relative="1" as="geometry">
            <mxPoint x="632" y="338" as="sourcePoint" />
            <mxPoint x="483.625" y="436.5" as="targetPoint" />
          </mxGeometry>
        </mxCell>
        <mxCell id="G9NsWo8rrPsgKx8y6_3a-13" value="" style="endArrow=none;dashed=1;html=1;rounded=0;strokeColor=#147EBA;" parent="1" edge="1">
          <mxGeometry width="50" height="50" relative="1" as="geometry">
            <mxPoint x="291" y="494" as="sourcePoint" />
            <mxPoint x="1011" y="494" as="targetPoint" />
          </mxGeometry>
        </mxCell>
        <mxCell id="G9NsWo8rrPsgKx8y6_3a-21" style="edgeStyle=orthogonalEdgeStyle;rounded=1;orthogonalLoop=1;jettySize=auto;html=1;endArrow=blockThin;endFill=1;startArrow=blockThin;startFill=1;" parent="1" source="G9NsWo8rrPsgKx8y6_3a-17" edge="1">
          <mxGeometry relative="1" as="geometry">
            <Array as="points">
              <mxPoint x="579" y="335" />
            </Array>
            <mxPoint x="562" y="530" as="sourcePoint" />
            <mxPoint x="632" y="335" as="targetPoint" />
          </mxGeometry>
        </mxCell>
        <mxCell id="G9NsWo8rrPsgKx8y6_3a-17" value="Internet" style="sketch=0;outlineConnect=0;fontColor=#232F3E;gradientColor=none;strokeColor=#232F3E;fillColor=#ffffff;dashed=0;verticalLabelPosition=bottom;verticalAlign=top;align=center;html=1;fontSize=12;fontStyle=0;aspect=fixed;shape=mxgraph.aws4.resourceIcon;resIcon=mxgraph.aws4.internet;" parent="1" vertex="1">
          <mxGeometry x="549" y="542.5" width="60" height="60" as="geometry" />
        </mxCell>
        <mxCell id="GxlsOtppAAsiO8l-ELnS-2" style="edgeStyle=orthogonalEdgeStyle;rounded=0;orthogonalLoop=1;jettySize=auto;html=1;startArrow=blockThin;startFill=1;endArrow=blockThin;endFill=1;" parent="1" source="GxlsOtppAAsiO8l-ELnS-3" target="G9NsWo8rrPsgKx8y6_3a-17" edge="1">
          <mxGeometry relative="1" as="geometry">
            <mxPoint x="529" y="573" as="targetPoint" />
          </mxGeometry>
        </mxCell>
        <UserObject label="" tooltip="A dedicated internet protocol via a virtual private network service." id="GxlsOtppAAsiO8l-ELnS-3">
          <mxCell style="image;aspect=fixed;html=1;points=[];align=center;fontSize=12;image=img/lib/azure2/networking/Reserved_IP_Addresses_Classic.svg;rotation=0;" parent="1" vertex="1">
            <mxGeometry x="444" y="558.75" width="34" height="27.5" as="geometry" />
          </mxCell>
        </UserObject>
        <mxCell id="GxlsOtppAAsiO8l-ELnS-4" style="edgeStyle=orthogonalEdgeStyle;rounded=1;orthogonalLoop=1;jettySize=auto;html=1;startArrow=blockThin;startFill=1;endArrow=blockThin;endFill=1;" parent="1" source="GxlsOtppAAsiO8l-ELnS-5" target="GxlsOtppAAsiO8l-ELnS-3" edge="1">
          <mxGeometry relative="1" as="geometry" />
        </mxCell>
        <mxCell id="GxlsOtppAAsiO8l-ELnS-5" value="" style="points=[[0.13,0.02,0],[0.5,0,0],[0.87,0.02,0],[0.885,0.4,0],[0.985,0.985,0],[0.5,1,0],[0.015,0.985,0],[0.115,0.4,0]];verticalLabelPosition=bottom;sketch=0;html=1;verticalAlign=top;aspect=fixed;align=center;pointerEvents=1;shape=mxgraph.cisco19.secure_endpoints;fillColor=#282828;strokeColor=none;" parent="1" vertex="1">
          <mxGeometry x="330" y="555" width="50" height="35" as="geometry" />
        </mxCell>
        <UserObject label="" tooltip="PEM (Privacy Enhanced Mail) Key" link="https://docs.aws.amazon.com/AWSEC2/latest/UserGuide/ec2-key-pairs.html" linkTarget="_blank" id="GxlsOtppAAsiO8l-ELnS-7">
          <mxCell style="verticalLabelPosition=bottom;html=1;verticalAlign=top;align=center;strokeColor=none;fillColor=#282828;shape=mxgraph.azure.access_control;rotation=0;" parent="1" vertex="1">
            <mxGeometry x="471" y="578" width="35" height="35" as="geometry" />
          </mxCell>
        </UserObject>
      </root>
    </mxGraphModel>
  </diagram>
</mxfile>
